<svg width="341" height="57" viewBox="0 0 341 57" fill="none" xmlns="http://www.w3.org/2000/svg">
<g filter="url(#filter0_d)">
<path d="M51.2595 14.4645L42.3234 44H55.3213L68.2613 0.770259H56.5979C55.0892 0.770259 53.6192 1.13776 52.1879 1.87277C50.7566 2.56908 49.538 3.53619 48.5322 4.77409L40.2345 15.2189L38.3196 5.29633C38.1648 4.60001 37.8747 3.98106 37.4492 3.43948C37.0623 2.8979 36.5788 2.43369 35.9985 2.04684C35.4183 1.62132 34.78 1.31184 34.0836 1.11842C33.3873 0.886313 32.691 0.770259 31.9947 0.770259H18.9968L5.99883 44H18.8227L27.8748 13.9423L31.8206 34.5997H34.6639L51.2595 14.4645ZM101.152 17.5399C97.825 17.5399 95.1558 17.5399 93.1442 17.5399C91.1713 17.5012 89.6239 17.4819 88.5021 17.4819C87.4189 17.4819 86.6259 17.5012 86.123 17.5399C85.6588 17.5399 85.2526 17.5593 84.9044 17.5979C85.2913 17.0564 85.6201 16.4181 85.8909 15.6831C86.2004 14.9094 86.5292 14.1744 86.8773 13.4781C87.2642 12.7817 87.709 12.2015 88.2119 11.7373C88.7148 11.2344 89.3531 10.9829 90.1268 10.9829H108.579L111.713 0.596182H86.7613C84.0147 0.596182 81.5002 0.963683 79.2178 1.69868C76.9741 2.43369 74.9239 3.47816 73.067 4.83212C71.2102 6.14738 69.5274 7.73344 68.0187 9.59029C66.5487 11.4471 65.2334 13.4974 64.0729 15.7411C63.9569 15.9732 64.0149 16.1473 64.247 16.2633C64.4791 16.3407 64.6919 16.3214 64.8853 16.2053C64.9627 16.2053 65.0594 16.1473 65.1754 16.0312C65.8717 15.2962 66.5487 14.7546 67.2064 14.4065C67.9027 14.0196 68.5603 13.7295 69.1793 13.5361C69.8369 13.3427 70.4558 13.1879 71.0361 13.0719C71.655 12.9558 72.2353 12.8011 72.7769 12.6077C71.5777 15.3156 70.5332 18.1008 69.6435 20.9635C68.7924 23.7874 68.0961 26.6694 67.5545 29.6094C67.2837 31.0794 67.187 32.6461 67.2644 34.3096C67.3804 35.973 67.7286 37.5204 68.3089 38.9517C68.8891 40.383 69.7402 41.6016 70.862 42.6074C72.0225 43.6132 73.5119 44.2128 75.3301 44.4062C83.4538 45.2959 91.5388 45.1218 99.5851 43.8839L102.661 33.149C99.4497 33.768 96.1809 34.1355 92.8541 34.2515C89.5272 34.3289 86.2197 34.1162 82.9315 33.6133C82.3899 33.5359 81.9064 33.2458 81.4809 32.7429C81.0553 32.24 80.8813 31.7177 80.9586 31.1761C81.0747 30.2864 81.2681 29.3967 81.5389 28.5069C81.8097 27.6172 82.0418 26.7274 82.2352 25.8377H98.5987L101.152 17.5399ZM123.358 31.1761C123.706 27.9267 124.383 24.7545 125.389 21.6598C126.395 18.5264 127.71 15.5477 129.335 12.7237C129.606 12.2208 129.993 11.8146 130.496 11.5052C130.998 11.157 131.54 10.9829 132.12 10.9829H151.327L154.461 0.596182H128.813C127.614 0.596182 126.434 0.789603 125.273 1.17645C124.113 1.56329 123.01 2.08553 121.966 2.74316C120.921 3.4008 119.973 4.17448 119.122 5.06422C118.31 5.95396 117.633 6.90173 117.091 7.90752C115.312 11.3117 113.784 14.832 112.507 18.4683C111.231 22.066 110.244 25.7797 109.548 29.6094C109.277 31.0794 109.2 32.6461 109.316 34.3096C109.432 35.973 109.78 37.5204 110.36 38.9517C110.941 40.383 111.792 41.6016 112.914 42.6074C114.074 43.6132 115.563 44.2128 117.382 44.4062C125.196 45.2959 132.952 45.1605 140.65 44H143.261L149.586 24.271H136.646L133.397 34.1355C132.043 34.1355 130.689 34.1548 129.335 34.1935C127.981 34.2322 126.646 34.1548 125.331 33.9614C124.751 33.884 124.248 33.5359 123.823 32.9169C123.436 32.298 123.281 31.7177 123.358 31.1761ZM179.812 34.8318V44H191.823V0.712233H179.29C179.019 0.712233 178.535 0.77026 177.839 0.886314C177.143 1.00237 176.311 1.33118 175.344 1.87277C174.377 2.41435 173.313 3.24606 172.152 4.3679C171.03 5.45106 169.87 6.9791 168.671 8.952L147.665 44H161.301L166.524 34.8318H179.812ZM170.934 26.9982L180.044 10.6928V26.9982H170.934ZM233.321 0.596182L221.715 0.538156C218.35 0.49947 215.565 0.712233 213.36 1.17645C211.155 1.60197 209.278 2.33697 207.731 3.38145C206.184 4.38725 204.81 5.7412 203.611 7.44331C202.451 9.10673 201.232 11.157 199.956 13.5941C199.878 13.8649 199.975 14.039 200.246 14.1164C200.555 14.1937 200.807 14.097 201 13.8262C201.735 12.9365 202.663 12.1628 203.785 11.5052C204.907 10.8475 206.203 10.3059 207.673 9.88042L197.17 44H219.859C221.948 44 223.746 43.9226 225.255 43.7679C226.764 43.5745 228.021 43.323 229.027 43.0135C231.425 42.2399 233.495 40.9439 235.236 39.1258C236.976 37.3076 238.234 35.1026 239.007 32.5108C240.593 27.6752 239.394 24.3097 235.41 22.4141C236.493 22.0273 237.557 21.4857 238.601 20.7894C239.646 20.0544 240.593 19.242 241.444 18.3523C242.334 17.4239 243.108 16.4374 243.766 15.3929C244.423 14.3098 244.926 13.2073 245.274 12.0854C245.932 9.99647 245.971 8.10094 245.39 6.39883C244.849 4.65804 243.882 3.2654 242.489 2.22092C242.141 1.95013 241.638 1.73737 240.98 1.58263C240.361 1.38921 239.626 1.23447 238.775 1.11842C237.963 1.00237 237.073 0.924998 236.106 0.886314C235.178 0.808944 234.23 0.750917 233.263 0.712233L233.321 0.596182ZM212.315 36.2825L215.333 26.2439H221.948C223.302 26.2439 224.288 26.3213 224.907 26.476C225.565 26.5921 226.145 26.8242 226.648 27.1723C227.77 27.9847 228.04 29.2613 227.46 31.0021C227.228 31.8144 226.802 32.6075 226.184 33.3812C225.565 34.1162 224.849 34.7351 224.037 35.238C223.688 35.4314 223.34 35.6055 222.992 35.7602C222.644 35.8763 222.276 35.973 221.89 36.0504C221.503 36.1277 221.039 36.1858 220.497 36.2244C219.994 36.2631 219.394 36.2825 218.698 36.2825H212.315ZM217.712 18.5264L220.671 8.83594H230.826V8.77792C231.212 8.85529 231.599 9.06805 231.986 9.41621C233.108 10.2286 233.398 11.5052 232.857 13.246C232.586 14.0583 232.141 14.8514 231.522 15.625C230.903 16.36 230.187 16.979 229.375 17.4819C228.679 17.9074 227.982 18.1976 227.286 18.3523C226.59 18.4683 225.545 18.5264 224.153 18.5264H217.712ZM255.429 0.596182L245.333 33.4972C245.023 35.238 245.023 36.7273 245.333 37.9652C245.642 39.1645 246.164 40.1896 246.899 41.0406C247.673 41.853 248.602 42.5107 249.685 43.0135C250.807 43.4778 252.006 43.8259 253.282 44.058C254.559 44.3288 255.894 44.4836 257.286 44.5222C258.679 44.5996 260.033 44.6383 261.348 44.6383C263.128 44.6383 265.1 44.5803 267.267 44.4642C269.472 44.3482 271.638 44.0193 273.766 43.4778C275.932 42.8975 277.944 42.0271 279.8 40.8666C281.696 39.6674 283.224 38.0039 284.385 35.8763L295.119 0.538156H282.063C281.947 0.538156 281.87 0.557498 281.831 0.596182L272.431 31.5243C272.006 32.3754 271.503 33.0717 270.922 33.6133C270.342 34.1548 269.685 34.5997 268.95 34.9479C268.214 35.2573 267.441 35.4894 266.628 35.6442C265.816 35.7989 264.965 35.915 264.075 35.9923C263.224 35.8763 262.393 35.7216 261.58 35.5281C260.806 35.3347 260.129 35.0639 259.549 34.7158C259.008 34.3289 258.601 33.8647 258.331 33.3231C258.099 32.7815 258.118 32.1239 258.389 31.3502L267.731 0.596182H255.429ZM290.47 44H306.369C309.851 44 312.694 43.8839 314.899 43.6518C317.104 43.3811 318.884 42.9168 320.238 42.2592C322.443 41.2147 324.183 39.706 325.46 37.7331C326.775 35.7216 327.82 33.5359 328.593 31.1761C329.251 29.3193 329.541 27.5398 329.464 25.8377C329.387 24.0969 328.98 22.7236 328.245 21.7178C327.317 20.4026 325.924 19.4741 324.067 18.9326C322.211 18.391 319.561 18.1202 316.118 18.1202C315.305 18.1202 314.609 18.1202 314.029 18.1202C313.449 18.1202 312.946 18.1202 312.52 18.1202C312.095 18.0815 311.727 18.0428 311.418 18.0041C311.108 17.9268 310.799 17.8107 310.489 17.656C309.754 17.3078 309.251 16.8243 308.981 16.2053C308.748 15.5477 308.845 14.7353 309.271 13.7682C309.658 12.8785 310.334 12.2402 311.302 11.8533C312.307 11.4665 313.487 11.1957 314.841 11.041H333.468L335.963 0.596182H314.725C311.36 0.557498 308.536 0.886315 306.253 1.58263C303.971 2.24027 301.998 3.22672 300.335 4.54198C298.671 5.81857 297.201 7.40462 295.925 9.30015C294.648 11.1957 293.371 13.362 292.095 15.7991C292.017 16.0312 292.095 16.2053 292.327 16.3214C292.559 16.3987 292.772 16.3794 292.965 16.2633C293.043 16.2633 293.139 16.2053 293.255 16.0893C293.836 15.3543 294.551 14.716 295.402 14.1744C296.292 13.5941 297.279 13.0912 298.362 12.6657C297.975 13.7875 297.743 14.89 297.665 15.9732C297.627 17.0564 297.685 18.0815 297.839 19.0486C298.033 20.0157 298.284 20.9248 298.594 21.7759C298.903 22.6269 299.213 23.4006 299.522 24.0969C299.793 24.7545 300.296 25.2961 301.031 25.7217C301.766 26.1472 302.617 26.5147 303.584 26.8242C304.59 27.0949 305.673 27.3077 306.834 27.4624C308.033 27.5785 309.193 27.6752 310.315 27.7526C311.476 27.7913 312.559 27.8106 313.565 27.8106C314.57 27.8106 315.421 27.7913 316.118 27.7526C316.93 28.1781 317.452 28.5843 317.685 28.9711C317.955 29.358 317.936 30.0543 317.626 31.0601C317.356 31.8725 316.833 32.4721 316.06 32.8589C315.286 33.2458 314.377 33.5165 313.333 33.6713C312.288 33.7873 311.186 33.8454 310.025 33.8454C308.864 33.8454 307.762 33.8454 306.718 33.8454H292.965L290.47 44Z" fill="white"/>
</g>
<defs>
<filter id="filter0_d" x="0.977256" y="0.533691" width="340.007" height="55.7501" filterUnits="userSpaceOnUse" color-interpolation-filters="sRGB">
<feFlood flood-opacity="0" result="BackgroundImageFix"/>
<feColorMatrix in="SourceAlpha" type="matrix" values="0 0 0 0 0 0 0 0 0 0 0 0 0 0 0 0 0 0 127 0" result="hardAlpha"/>
<feOffset dy="6.2769"/>
<feGaussianBlur stdDeviation="2.51076"/>
<feComposite in2="hardAlpha" operator="out"/>
<feColorMatrix type="matrix" values="0 0 0 0 0 0 0 0 0 0 0 0 0 0 0 0 0 0 0.25 0"/>
<feBlend mode="normal" in2="BackgroundImageFix" result="effect1_dropShadow"/>
<feBlend mode="normal" in="SourceGraphic" in2="effect1_dropShadow" result="shape"/>
</filter>
</defs>
</svg>
